<svg width="250" height="59" viewBox="0 0 250 59" fill="none" xmlns="http://www.w3.org/2000/svg">
<g filter="url(#filter0_d_601_15)">
<path d="M51.0197 11.9021L34.8045 58.4481H77.3676V11.9021H51.0197Z" fill="url(#paint0_linear_601_15)"/>
<path d="M53.0465 17.8545H61.1527L70.8818 34.9194L61.1527 52.4019H53.0465L61.9627 34.9194L53.0465 17.8545Z" fill="white"/>
<path d="M30.3479 46.3796L46.5602 0H4V46.3796H30.3479Z" fill="url(#paint1_linear_601_15)"/>
<path d="M28.7251 40.5H20.6189L10.8898 23.435L20.6189 5.95264H28.7251L19.8089 23.435L28.7251 40.5Z" fill="white"/>
<path d="M83.7692 21.1847C85.3669 20.9451 86.9799 20.8319 88.5943 20.8459C91.5184 20.8459 93.3291 21.3359 94.8347 22.4066C96.5071 23.5983 97.5831 25.5552 97.5831 28.4378C97.5831 31.6348 96.4138 33.7127 94.9315 34.9075C93.2643 36.2444 90.7786 36.8402 87.8106 36.8402C86.4592 36.8582 85.1083 36.7723 83.7692 36.5831V21.1847ZM87.8281 33.5282C88.114 33.5677 88.4025 33.5829 88.6908 33.5735C91.3222 33.6069 93.2703 32.1127 93.2703 28.5709C93.2703 25.5038 91.5158 24.0611 89.0651 24.0611C88.6504 24.0491 88.2356 24.0836 87.8281 24.1639V33.5282Z" fill="white"/>
<path d="M112.427 30.3372H106.973V33.2287H113.076V36.6646H102.908V20.9668H112.755V24.4028H106.973V26.9374H112.427V30.3372Z" fill="white"/>
<path d="M122.305 36.6646L117.483 20.9668H121.946L123.557 27.1462C124.034 28.9035 124.452 30.6214 124.818 32.6358H124.861C125.226 30.7213 125.662 28.9035 126.107 27.2157L127.756 20.9729H132.084L127.113 36.6707L122.305 36.6646Z" fill="white"/>
<path d="M146.413 30.3372H140.95V33.2287H147.048V36.6646H136.886V20.9668H146.732V24.4028H140.95V26.9374H146.413V30.3372Z" fill="white"/>
<path d="M152.466 20.9668H156.531V33.141H162.38V36.6646H152.466V20.9668Z" fill="white"/>
<path d="M180.92 28.6583C180.92 33.7064 177.996 36.9216 173.317 36.9216C168.638 36.9216 166.006 33.2709 166.006 28.9094C166.006 24.3392 168.899 20.7126 173.548 20.7126C178.441 20.7126 180.92 24.4572 180.92 28.6583ZM170.317 28.8337C170.317 31.7858 171.56 33.5915 173.501 33.5915C175.443 33.5915 176.621 31.6225 176.621 28.7945C176.621 26.0904 175.452 24.0428 173.478 24.0428C171.563 24.0428 170.32 25.9362 170.32 28.8337H170.317Z" fill="white"/>
<path d="M186.245 21.1846C187.902 20.9334 189.575 20.8202 191.248 20.8458C193.433 20.8458 194.998 21.2541 196.062 22.098C196.614 22.5456 197.057 23.12 197.358 23.7757C197.658 24.4315 197.806 25.1505 197.79 25.8758C197.79 27.4667 197.276 28.858 196.314 29.7473C195.088 30.8845 193.307 31.3897 191.26 31.3897C190.865 31.3897 190.518 31.3564 190.269 31.3383V36.6646H186.245V21.1846ZM190.278 28.111C190.585 28.1603 190.897 28.1805 191.208 28.1715C192.787 28.1715 193.778 27.3246 193.778 25.9755C193.778 24.805 193.03 24.0126 191.483 24.0126C191.078 24.0048 190.674 24.0412 190.278 24.1215V28.111Z" fill="white"/>
<path d="M212.47 30.3372H207.016V33.2287H213.11V36.6646H202.951V20.9668H212.794V24.4028H207.016V26.9374H212.47V30.3372Z" fill="white"/>
<path d="M218.532 21.1846C220.156 20.9459 221.796 20.8326 223.436 20.8458C225.776 20.8458 227.425 21.1785 228.568 22.0556C229.542 22.8239 230.065 23.943 230.065 25.4795C230.065 27.4364 228.647 28.8277 227.465 29.2754V29.357C228.475 29.8047 229.018 30.8058 229.407 32.17C229.864 33.764 230.363 36.0475 230.656 36.6525H226.503C226.273 36.1988 225.878 34.9708 225.439 33.0229C225.026 31.1416 224.471 30.7514 223.217 30.7514H222.555V36.6374H218.532V21.1846ZM222.555 27.751H223.614C225.146 27.751 226.03 26.9767 226.03 25.8001C226.03 24.6235 225.281 23.9551 223.93 23.943C223.47 23.9233 223.009 23.9547 222.555 24.0368V27.751Z" fill="white"/>
<path d="M235.847 32.4844C237.075 33.1021 238.418 33.4335 239.783 33.4553C241.172 33.4553 241.859 32.9562 241.859 32.1638C241.859 31.3714 241.178 30.9721 239.462 30.3642C236.905 29.4265 235.201 27.9656 235.201 25.6306C235.201 22.854 237.464 20.7246 241.297 20.7246C242.702 20.6898 244.097 20.963 245.392 21.5262L244.541 24.8866C243.505 24.399 242.38 24.1454 241.242 24.1425C240.005 24.1425 239.324 24.6113 239.324 25.3009C239.324 26.0964 240.128 26.417 242.043 27.1581C244.778 28.1924 246 29.7078 246 31.8916C246 34.6138 243.953 36.9094 239.532 36.9094C237.701 36.9094 235.928 36.4134 235.069 35.9537L235.847 32.4844Z" fill="white"/>
</g>
<defs>
<filter id="filter0_d_601_15" x="0" y="0" width="250" height="59" filterUnits="userSpaceOnUse" color-interpolation-filters="sRGB">
<feFlood flood-opacity="0" result="BackgroundImageFix"/>
<feColorMatrix in="SourceAlpha" type="matrix" values="0 0 0 0 0 0 0 0 0 0 0 0 0 0 0 0 0 0 127 0" result="hardAlpha"/>
<feOffset dy="4"/>
<feGaussianBlur stdDeviation="2"/>
<feComposite in2="hardAlpha" operator="out"/>
<feColorMatrix type="matrix" values="0 0 0 0 0 0 0 0 0 0 0 0 0 0 0 0 0 0 0.25 0"/>
<feBlend mode="normal" in2="BackgroundImageFix" result="effect1_dropShadow_601_15"/>
<feBlend mode="normal" in="SourceGraphic" in2="effect1_dropShadow_601_15" result="shape"/>
</filter>
<linearGradient id="paint0_linear_601_15" x1="-84790.9" y1="63458.2" x2="-84790.9" y2="56091.9" gradientUnits="userSpaceOnUse">
<stop stop-color="#ACC0FE"/>
<stop offset="1" stop-color="#4B086D"/>
</linearGradient>
<linearGradient id="paint1_linear_601_15" x1="-89299.2" y1="65070.2" x2="-89299.2" y2="57730.6" gradientUnits="userSpaceOnUse">
<stop stop-color="#ACC0FE"/>
<stop offset="1" stop-color="#4B086D"/>
</linearGradient>
</defs>
</svg>
